<svg width="560" height="373" viewBox="0 0 560 373" fill="none" xmlns="http://www.w3.org/2000/svg">
<g clip-path="url(#clip0_144_4)">
<mask id="mask0_144_4" style="mask-type:luminance" maskUnits="userSpaceOnUse" x="0" y="0" width="560" height="373">
<path d="M559.857 0H0V372.909H559.857V0Z" fill="white"/>
</mask>
<g mask="url(#mask0_144_4)">
<path d="M559.857 350.741C530.62 381.392 484.17 380.27 456.997 347.299L369.342 240.959L368.556 240.011C372.253 222.564 374.113 204.652 374.113 186.455C374.113 160.994 370.429 135.998 363.278 112.274C363.184 111.963 363.097 111.66 362.996 111.349L414.331 32.7512C438.001 -3.49245 484.034 -10.5734 516.175 16.1153L413.551 173.261L559.854 350.741H559.857Z" fill="#D2A30B"/>
<path d="M333.788 186.455C333.788 190.154 333.694 193.836 333.499 197.483C331.408 237.358 318.082 273.96 297.058 303.308C293.34 308.483 289.396 313.434 285.221 318.142C255.252 351.932 213.918 372.912 168.45 372.912H0V265.517C0 220.51 33.3423 184.023 73.2594 184.023V283.055C73.2594 286.179 75.5249 288.731 78.2924 288.731H147.33C196.623 288.731 236.955 243.246 236.955 187.652V183.687C236.955 128.099 196.621 82.616 147.33 82.616H0.342857C0.342857 81.9109 0.34958 81.2134 0.369748 80.5084C0.416807 78.4083 0.531092 76.3311 0.719328 74.2715C0.773109 73.6119 0.840336 72.9599 0.914286 72.3079C0.921008 72.2321 0.927731 72.1639 0.934454 72.0956C1.08908 70.7689 1.26387 69.4573 1.47227 68.1458C1.57983 67.4786 1.69412 66.8039 1.81513 66.1367C1.92269 65.5378 2.03697 64.9313 2.15798 64.3324C2.17143 64.2414 2.1916 64.1504 2.21176 64.0595C2.35966 63.3165 2.52101 62.5811 2.68908 61.8533V61.8457C2.83697 61.2013 2.9916 60.5645 3.15294 59.9277C3.17311 59.8443 3.2 59.7533 3.22689 59.6623C3.39496 59.0103 3.56975 58.3583 3.75126 57.7139C3.79832 57.532 3.84538 57.35 3.90588 57.1681C4.06723 56.5995 4.23529 56.0309 4.41008 55.4698C4.45042 55.3258 4.49076 55.1818 4.54454 55.0453C4.65882 54.6587 4.78655 54.2644 4.91429 53.8778C5.01513 53.5594 5.12269 53.2485 5.23698 52.9301C5.28403 52.7709 5.33782 52.6117 5.3916 52.4525C5.54622 52.0204 5.70084 51.5882 5.86218 51.1561C5.92269 50.9817 5.98319 50.8073 6.05042 50.633C6.21176 50.1933 6.38655 49.746 6.56134 49.3063C6.61513 49.147 6.67563 48.9954 6.74286 48.8362C6.97815 48.2449 7.22017 47.6535 7.46891 47.0622C7.72437 46.4557 7.98655 45.8643 8.24874 45.2654C8.51765 44.6741 8.79328 44.0903 9.06891 43.499C9.62689 42.3315 10.205 41.1791 10.8101 40.0419C11.0252 39.6325 11.2471 39.2307 11.4756 38.8289C11.6235 38.5484 11.7782 38.2755 11.9328 38.0025C12.0874 37.7144 12.2555 37.4264 12.4235 37.1458C12.5647 36.8957 12.7126 36.6531 12.8538 36.4105C13.0286 36.1148 13.2034 35.8191 13.3916 35.531C13.5462 35.2733 13.7008 35.0231 13.8622 34.7729C16.242 30.9974 18.902 27.4519 21.7994 24.1843C35.0566 9.24919 53.3714 0 73.6022 0H168.45C204.986 0 238.846 13.5453 266.295 36.4054C281.604 49.1546 294.913 64.7974 305.58 82.6185C307.913 86.5077 310.111 90.5005 312.179 94.5944C322.059 114.111 328.901 135.819 331.973 158.869C333.17 167.873 333.788 177.089 333.788 186.457V186.455Z" fill="#D2A30B"/>
</g>
</g>
<defs>
<clipPath id="clip0_144_4">
<rect width="560" height="373" fill="white"/>
</clipPath>
</defs>
</svg>
